<?xml version="1.0" encoding="utf-8"?>
<!-- Generator: Adobe Illustrator 23.0.1, SVG Export Plug-In . SVG Version: 6.00 Build 0)  -->
<svg version="1.1" xmlns="http://www.w3.org/2000/svg" xmlns:xlink="http://www.w3.org/1999/xlink" x="0px" y="0px"
	 viewBox="0 0 40 40" style="enable-background:new 0 0 40 40;" xml:space="preserve">
<style type="text/css">
	.st0{fill:#8C9498;}
	.st1{fill:#6BAC8F;}
</style>
<g id="background">
</g>
<g id="object">
	<g>
		<path class="st0" d="M11.3,8.4c-2.8,0-5.6,0-8.4,0c-0.2,0-0.4,0.2-0.4,0.4c0,2.8,0,5.6,0,8.4c0,0.2,0.2,0.4,0.4,0.4
			c2.8,0,5.6,0,8.4,0c0.1,0,0.2,0,0.3-0.1c0,0,0,0,0,0c0,0,0,0,0,0c0.1-0.1,0.1-0.2,0.1-0.3c0-2.8,0-5.6,0-8.4
			C11.8,8.6,11.6,8.4,11.3,8.4z M10.9,16.8c-2.5,0-5,0-7.6,0c0-2.5,0-5,0-7.6c2.5,0,5,0,7.6,0C10.9,11.8,10.9,14.3,10.9,16.8z"/>
		<path class="st0" d="M11.4,24c-2.8,0-5.6,0-8.4,0c-0.2,0-0.4,0.2-0.4,0.4c0,2.8,0,5.6,0,8.4c0,0.2,0.2,0.4,0.4,0.4
			c2.8,0,5.6,0,8.4,0c0.1,0,0.2,0,0.3-0.1c0,0,0,0,0,0c0,0,0,0,0,0c0.1-0.1,0.1-0.2,0.1-0.3c0-2.8,0-5.6,0-8.4
			C11.9,24.2,11.7,24,11.4,24z M11,32.4c-2.5,0-5,0-7.6,0c0-2.5,0-5,0-7.6c2.5,0,5,0,7.6,0C11,27.4,11,29.9,11,32.4z"/>
		<polygon class="st1" points="5,12 7,11.3 8.1,13.3 17.3,6.5 18.4,6.7 7.7,15.6 		"/>
		<polygon class="st1" points="5,26.8 6.9,26.1 8,28 17.2,21.3 18.3,21.5 7.6,30.4 		"/>
		
			<rect x="16.9" y="27.3" transform="matrix(1 -5.736521e-03 5.736521e-03 1 -0.1683 0.1565)" class="st0" width="20.7" height="4.2"/>
		
			<rect x="16.8" y="10.8" transform="matrix(1 -5.736521e-03 5.736521e-03 1 -7.352608e-02 0.1557)" class="st0" width="20.7" height="4.2"/>
	</g>
</g>
</svg>
